<svg width="40" height="34" viewBox="0 0 40 34" fill="none" xmlns="http://www.w3.org/2000/svg">
<g id="Group 10">
<g id="Group">
<g id="Group_2">
<path id="Vector" d="M31.5357 16.5989C29.4136 12.3696 27.4101 8.37426 30.9945 1.84356C31.2227 1.42663 31.0146 0.92963 30.5285 0.73341C30.0423 0.53719 29.4628 0.717319 29.2341 1.13308C25.2783 8.34312 27.5507 12.8749 29.7487 17.2582C29.8426 17.4449 29.9347 17.6312 30.0281 17.818C28.3636 18.9176 24.7999 19.8331 20.3917 19.8331C15.9803 19.8331 12.4199 18.9165 10.7567 17.8157C10.8494 17.6301 10.9414 17.4449 11.0348 17.2582C13.2327 12.8749 15.5046 8.34312 11.5494 1.13308C11.3199 0.716733 10.7411 0.536018 10.255 0.73341C9.76886 0.92963 9.56081 1.42663 9.78899 1.84356C13.3734 8.37433 11.3699 12.3696 9.24907 16.5989C6.94935 21.1856 4.57124 25.9286 9.83114 33.5978C10.0126 33.8625 10.3373 34.0092 10.6705 34.0092C10.8377 34.0092 11.0075 33.9726 11.1625 33.8942C11.6259 33.6607 11.7796 33.1492 11.5079 32.7524C8.52375 28.4007 8.22948 25.1448 8.96841 22.2375C14.5848 23.5855 18.6287 28.2813 19.4201 29.2624V33.1749C19.4201 33.6358 19.8551 34.0088 20.3924 34.0088C20.9297 34.0088 21.3647 33.6358 21.3647 33.1749V29.2608C22.1846 28.2457 26.2143 23.575 31.8151 22.233C32.5547 25.1421 32.2624 28.3986 29.2769 32.7524C29.0053 33.1488 29.1589 33.6602 29.6224 33.8942C29.7772 33.9726 29.9471 34.0093 30.1143 34.0093C30.4475 34.0093 30.7722 33.8625 30.9537 33.5979C36.2135 25.9286 33.8354 21.1862 31.5357 16.5989ZM20.3917 27.5714C18.7746 25.743 14.848 21.9089 9.48432 20.6287C9.64185 20.2157 9.81686 19.8076 10.0002 19.4013C12.239 20.686 15.9725 21.5009 20.3923 21.5009C24.807 21.5009 28.5456 20.6904 30.7876 19.4091C30.9698 19.8127 31.1435 20.2185 31.2997 20.6288C25.9355 21.9089 22.0089 25.743 20.3917 27.5714Z" fill="#2C2C2E"/>
</g>
</g>
<g id="Group_3">
<g id="Group_4">
<path id="Vector_2" d="M20.391 16.4972C20.928 16.4972 21.3633 16.1239 21.3633 15.6633C21.3633 15.2028 20.928 14.8295 20.391 14.8295C19.8541 14.8295 19.4188 15.2028 19.4188 15.6633C19.4188 16.1239 19.8541 16.4972 20.391 16.4972Z" fill="#2C2C2E"/>
</g>
</g>
<g id="Group_5">
<g id="Group_6">
<path id="Vector_3" d="M9.41179 10.0715L6.49506 7.56995C6.11527 7.24422 5.50015 7.24422 5.12029 7.56995C4.74049 7.89568 4.74049 8.42323 5.12029 8.74903L6.37709 9.82694H1.91894C1.38161 9.82694 0.946671 10.2 0.946671 10.6608C0.946671 11.1216 1.38161 11.4947 1.91894 11.4947H6.3777L5.12029 12.5731C4.74049 12.8988 4.74049 13.4264 5.12029 13.7522C5.31018 13.915 5.5591 13.9962 5.80801 13.9962C6.05693 13.9962 6.30577 13.915 6.49574 13.7522L9.41247 11.2506C9.79158 10.9248 9.79158 10.3972 9.41179 10.0715Z" fill="#2C2C2E"/>
</g>
</g>
<g id="Group_7">
<g id="Group_8">
<path id="Vector_4" d="M38.8645 9.8269H34.4057L35.6626 8.749C36.0424 8.42327 36.0424 7.89572 35.6626 7.56992C35.2828 7.24419 34.6677 7.24419 34.2878 7.56992L31.3711 10.0715C30.9913 10.3972 30.9913 10.9247 31.3711 11.2505L34.2878 13.7521C34.4777 13.9149 34.7266 13.9961 34.9755 13.9961C35.2244 13.9961 35.4733 13.9149 35.6632 13.7521C36.043 13.4264 36.043 12.8988 35.6632 12.573L34.4064 11.4951H38.8652C39.4025 11.4951 39.8375 11.1221 39.8375 10.6612C39.8375 10.2004 39.4018 9.8269 38.8645 9.8269Z" fill="#2C2C2E"/>
</g>
</g>
</g>
</svg>
