<svg width="53" height="58" viewBox="0 0 53 58" fill="none" xmlns="http://www.w3.org/2000/svg">
<g id="Group">
<g id="Group_2">
<path id="Vector" d="M20.5811 13.9479C20.5811 13.1333 20.4206 12.3266 20.1089 11.5739C19.7971 10.8213 19.3402 10.1374 18.7641 9.56136C18.1881 8.98531 17.5042 8.52836 16.7515 8.2166C15.9989 7.90484 15.1922 7.74438 14.3776 7.74438C13.5629 7.74438 12.7562 7.90484 12.0036 8.2166C11.2509 8.52836 10.567 8.98531 9.99099 9.56136C9.41493 10.1374 8.95799 10.8213 8.64623 11.5739C8.33447 12.3266 8.17401 13.1333 8.17401 13.9479C8.18018 14.9146 8.41466 15.8662 8.85833 16.7251C7.43484 17.1528 6.2129 18.0787 5.41607 19.3334C4.61923 20.5881 4.30076 22.0877 4.51892 23.558C4.73708 25.0282 5.47728 26.3708 6.60412 27.3401C7.73095 28.3093 9.16909 28.8405 10.6554 28.8364" stroke="white" stroke-width="2.5" stroke-linecap="round" stroke-linejoin="round"/>
<path id="Vector_2" d="M4.49899 26.0295C3.48742 26.8659 2.69132 27.9328 2.17755 29.1406C1.66378 30.3484 1.44734 31.6619 1.54641 32.9707C1.64549 34.2795 2.05719 35.5454 2.74692 36.6622C3.43666 37.7789 4.3843 38.7138 5.51024 39.3883C6.63619 40.0629 7.90756 40.4574 9.21759 40.5388C10.5276 40.6201 11.838 40.3859 13.0388 39.8559C14.2395 39.3258 15.2956 38.5153 16.1182 37.4925C16.9408 36.4697 17.5059 35.2645 17.7662 33.978V33.5727" stroke="white" stroke-width="2.5" stroke-miterlimit="10" stroke-linecap="round"/>
<path id="Vector_3" d="M10.181 50.3626C9.0058 49.7446 8.02192 48.8172 7.33566 47.6806C6.64941 46.5439 6.28689 45.2413 6.28729 43.9136C6.29452 42.7784 6.56984 41.661 7.09082 40.6523" stroke="white" stroke-width="2.5" stroke-linecap="round" stroke-linejoin="round"/>
<path id="Vector_4" d="M22.5656 19.5112C22.5656 21.0651 21.9483 22.5553 20.8496 23.6541C19.7508 24.7529 18.2606 25.3701 16.7067 25.3701" stroke="white" stroke-width="2.5" stroke-miterlimit="10" stroke-linecap="round"/>
<g id="Group_3">
<path id="Vector_5" d="M22.5657 19.523H36.0411L38.4093 17.156" stroke="white" stroke-width="2.5" stroke-miterlimit="10" stroke-linecap="round"/>
<path id="Vector_6" d="M30.1823 24.2103H37.2129L39.5811 21.8433H46.0013" stroke="white" stroke-width="2.5" stroke-miterlimit="10" stroke-linecap="round"/>
<path id="Vector_7" d="M29.4991 38.248H36.0411L38.4093 40.615" stroke="white" stroke-width="2.5" stroke-miterlimit="10" stroke-linecap="round"/>
<path id="Vector_8" d="M29.4991 33.561H37.2129L39.5811 35.928H46.0013" stroke="white" stroke-width="2.5" stroke-miterlimit="10" stroke-linecap="round"/>
<path id="Vector_9" d="M46.0012 45.3025H37.2374L35.4556 42.9348L29.6451 42.9349V50.0267C29.6451 51.5805 29.0278 53.0708 27.9291 54.1695C26.8303 55.2683 25.3401 55.8856 23.7862 55.8856C22.2323 55.8856 20.7421 55.2683 19.6433 54.1695C18.5446 53.0708 17.9273 51.5805 17.9273 50.0267" stroke="white" stroke-width="2.5" stroke-miterlimit="10" stroke-linecap="round"/>
</g>
<path id="Vector_10" d="M20.2709 5.60682C20.5351 4.47156 21.2077 3.47315 22.1605 2.80169C23.1133 2.13023 24.2797 1.83264 25.4377 1.96556C26.5957 2.09849 27.6644 2.65266 28.4403 3.52255C29.2161 4.39244 29.645 5.51729 29.6451 6.6829V14.8359L34.8697 14.836L37.2375 12.4683H46.0012" stroke="white" stroke-width="2.5" stroke-miterlimit="10" stroke-linecap="round"/>
<path id="Vector_11" d="M42.4859 28.8855H29.6451" stroke="white" stroke-width="2.5" stroke-miterlimit="10" stroke-linecap="round"/>
<path id="Vector_12" d="M13.7382 24.1984C13.7382 24.5004 13.4934 24.7452 13.1914 24.7452C12.8895 24.7452 12.6447 24.5004 12.6447 24.1984C12.6447 23.8964 12.8895 23.6516 13.1914 23.6516C13.4934 23.6516 13.7382 23.8964 13.7382 24.1984Z" fill="white" stroke="#33BBB5" stroke-width="1.25"/>
<path id="Vector_13" d="M14.6658 51.7353C14.6658 52.0372 14.421 52.282 14.119 52.282C13.8171 52.282 13.5723 52.0372 13.5723 51.7353C13.5723 51.4333 13.8171 51.1885 14.119 51.1885C14.421 51.1885 14.6658 51.4333 14.6658 51.7353Z" fill="white" stroke="#33BBB5" stroke-width="1.25"/>
</g>
<path id="Vector_14" d="M48.9063 14.8243C50.2006 14.8243 51.2499 13.7751 51.2499 12.4808C51.2499 11.1865 50.2006 10.1372 48.9063 10.1372C47.612 10.1372 46.5627 11.1865 46.5627 12.4808C46.5627 13.7751 47.612 14.8243 48.9063 14.8243Z" stroke="white" stroke-width="2.5" stroke-miterlimit="10" stroke-linecap="round"/>
<path id="Vector_15" d="M48.9063 24.1983C50.2006 24.1983 51.2499 23.1491 51.2499 21.8548C51.2499 20.5605 50.2006 19.5112 48.9063 19.5112C47.612 19.5112 46.5627 20.5605 46.5627 21.8548C46.5627 23.1491 47.612 24.1983 48.9063 24.1983Z" stroke="white" stroke-width="2.5" stroke-miterlimit="10" stroke-linecap="round"/>
<path id="Vector_16" d="M48.9063 38.2599C50.2006 38.2599 51.2499 37.2106 51.2499 35.9163C51.2499 34.622 50.2006 33.5728 48.9063 33.5728C47.612 33.5728 46.5627 34.622 46.5627 35.9163C46.5627 37.2106 47.612 38.2599 48.9063 38.2599Z" stroke="white" stroke-width="2.5" stroke-miterlimit="10" stroke-linecap="round"/>
<path id="Vector_17" d="M48.9063 47.6339C50.2006 47.6339 51.2499 46.5846 51.2499 45.2903C51.2499 43.996 50.2006 42.9468 48.9063 42.9468C47.612 42.9468 46.5627 43.996 46.5627 45.2903C46.5627 46.5846 47.612 47.6339 48.9063 47.6339Z" stroke="white" stroke-width="2.5" stroke-miterlimit="10" stroke-linecap="round"/>
</g>
</svg>
