<svg width="30" height="25" viewBox="0 0 30 25" fill="none" xmlns="http://www.w3.org/2000/svg">
<path id="Vector" d="M11.6253 17.8187C11.6253 17.8187 10.1507 13.8034 12.8541 11.3831C14.005 10.5574 15.2692 9.85695 16.6183 9.29735C16.6165 8.28214 16.9508 7.28758 17.5821 6.43062C18.2134 5.57365 19.1153 4.88992 20.1817 4.45981C21.2482 4.02969 22.435 3.87108 23.6024 4.00262C24.7699 4.13417 25.8695 4.55039 26.772 5.20236C27.6745 5.85433 28.3424 6.71494 28.6971 7.683C29.0517 8.65105 29.0785 9.6863 28.7742 10.667C28.4699 11.6478 27.8472 12.5332 26.9793 13.2192C26.1114 13.9052 25.0344 14.3633 23.8749 14.5396C21.5078 17.6291 16.3337 23.139 9.21936 23.139C5.44229 23.139 1.74283 13.6138 1.74283 9.29735V4.11092C1.74508 3.46687 2.03315 2.84799 2.54791 2.3813C3.06268 1.91462 3.76508 1.63555 4.51095 1.60135C6.74874 1.50097 9.68502 1.60135 10.3835 2.90633C11.4442 4.8136 9.15468 8.23776 6.68406 8.23776C6.68406 9.9108 9.0512 13.5469 11.1984 15.5545" stroke="#6C3483" stroke-width="1.79721" stroke-miterlimit="10"/>
</svg>
