<svg width="104" height="191" viewBox="0 0 104 191" fill="none" xmlns="http://www.w3.org/2000/svg">
<path id="Vector 1" opacity="0.5" d="M87.5 182.5C87.5 186.918 91.0817 190.5 95.5 190.5C99.9182 190.5 103.5 186.918 103.5 182.5C103.5 178.082 99.9182 174.5 95.5 174.5C91.0817 174.5 87.5 178.082 87.5 182.5ZM0.947008 1.68536L1.40396 2.57507L4.07257 1.20447L3.61561 0.314761L0.947008 1.68536ZM2.31787 4.35448L3.23178 6.13389L5.90038 4.76329L4.98648 2.98388L2.31787 4.35448ZM4.14569 7.9133L5.0596 9.69271L7.7282 8.32211L6.81429 6.5427L4.14569 7.9133ZM5.9735 11.4721L6.88741 13.2515L9.55602 11.8809L8.64211 10.1015L5.9735 11.4721ZM7.80132 15.0309L8.71523 16.8104L11.3838 15.4398L10.4699 13.6603L7.80132 15.0309ZM9.62914 18.5898L10.543 20.3692L13.2117 18.9986L12.2977 17.2192L9.62914 18.5898ZM11.457 22.1486L12.3709 23.928L15.0395 22.5574L14.1256 20.778L11.457 22.1486ZM13.2848 25.7074L14.1987 27.4868L16.8673 26.1162L15.9534 24.3368L13.2848 25.7074ZM15.1126 29.2662L16.0265 31.0457L18.6951 29.6751L17.7812 27.8956L15.1126 29.2662ZM16.9404 32.8251L17.8543 34.6045L20.5229 33.2339L19.609 31.4545L16.9404 32.8251ZM18.7682 36.3839L19.6821 38.1633L22.3507 36.7927L21.4368 35.0133L18.7682 36.3839ZM20.596 39.9427L21.51 41.7221L24.1786 40.3515L23.2646 38.5721L20.596 39.9427ZM22.4239 43.5015L23.3378 45.281L26.0064 43.9104L25.0925 42.1309L22.4239 43.5015ZM24.2517 47.0604L25.1656 48.8398L27.8342 47.4692L26.9203 45.6898L24.2517 47.0604ZM26.0795 50.6192L26.9934 52.3986L29.662 51.028L28.7481 49.2486L26.0795 50.6192ZM27.9073 54.178L28.8212 55.9574L31.4898 54.5868L30.5759 52.8074L27.9073 54.178ZM29.7351 57.7369L30.649 59.5163L33.3176 58.1457L32.4037 56.3663L29.7351 57.7369ZM31.5629 61.2957L32.4769 63.0751L35.1455 61.7045L34.2316 59.9251L31.5629 61.2957ZM33.3908 64.8545L34.3047 66.6339L36.9733 65.2633L36.0594 63.4839L33.3908 64.8545ZM35.2186 68.4133L36.1325 70.1927L38.8011 68.8221L37.8872 67.0427L35.2186 68.4133ZM37.0464 71.9721L37.9603 73.7515L40.6289 72.3809L39.715 70.6015L37.0464 71.9721ZM38.8742 75.5309L39.7881 77.3104L42.4567 75.9398L41.5428 74.1603L38.8742 75.5309ZM40.702 79.0898L41.6159 80.8692L44.2845 79.4986L43.3706 77.7192L40.702 79.0898ZM42.5298 82.6486L43.4437 84.428L46.1123 83.0574L45.1984 81.278L42.5298 82.6486ZM44.3577 86.2074L45.2716 87.9868L47.9402 86.6162L47.0263 84.8368L44.3577 86.2074ZM46.1855 89.7662L47.0994 91.5456L49.768 90.175L48.8541 88.3956L46.1855 89.7662ZM48.0133 93.325L48.9272 95.1045L51.5958 93.7339L50.6819 91.9544L48.0133 93.325ZM49.8411 96.8839L50.755 98.6633L53.4236 97.2927L52.5097 95.5133L49.8411 96.8839ZM51.6689 100.443L52.5828 102.222L55.2514 100.851L54.3375 99.0721L51.6689 100.443ZM53.4967 104.002L54.4106 105.781L57.0792 104.41L56.1653 102.631L53.4967 104.002ZM55.3245 107.56L56.2384 109.34L58.9071 107.969L57.9931 106.19L55.3245 107.56ZM57.1524 111.119L58.0663 112.899L60.7349 111.528L59.821 109.749L57.1524 111.119ZM58.9802 114.678L59.8941 116.457L62.5627 115.087L61.6488 113.307L58.9802 114.678ZM60.808 118.237L61.7219 120.016L64.3905 118.646L63.4766 116.866L60.808 118.237ZM62.6358 121.796L63.5497 123.575L66.2183 122.204L65.3044 120.425L62.6358 121.796ZM64.4636 125.354L65.3775 127.134L68.0461 125.763L67.1322 123.984L64.4636 125.354ZM66.2914 128.913L67.2053 130.693L69.8739 129.322L68.96 127.543L66.2914 128.913ZM68.1192 132.472L69.0332 134.251L71.7018 132.881L70.7879 131.101L68.1192 132.472ZM69.9471 136.031L70.861 137.81L73.5296 136.44L72.6157 134.66L69.9471 136.031ZM71.7749 139.59L72.6888 141.369L75.3574 139.999L74.4435 138.219L71.7749 139.59ZM73.6027 143.149L74.5166 144.928L77.1852 143.557L76.2713 141.778L73.6027 143.149ZM75.4305 146.707L76.3444 148.487L79.013 147.116L78.0991 145.337L75.4305 146.707ZM77.2583 150.266L78.1722 152.046L80.8408 150.675L79.9269 148.896L77.2583 150.266ZM79.0861 153.825L80 155.604L82.6686 154.234L81.7547 152.454L79.0861 153.825ZM80.914 157.384L81.8279 159.163L84.4965 157.793L83.5826 156.013L80.914 157.384ZM82.7418 160.943L83.6557 162.722L86.3243 161.351L85.4104 159.572L82.7418 160.943ZM84.5696 164.501L85.4835 166.281L88.1521 164.91L87.2382 163.131L84.5696 164.501ZM86.3974 168.06L87.3113 169.84L89.9799 168.469L89.066 166.69L86.3974 168.06ZM88.2252 171.619L89.1391 173.398L91.8077 172.028L90.8938 170.248L88.2252 171.619ZM90.053 175.178L90.9669 176.957L93.6355 175.587L92.7216 173.807L90.053 175.178ZM91.8808 178.737L92.7947 180.516L95.4634 179.146L94.5494 177.366L91.8808 178.737ZM93.7087 182.296L94.1657 183.185L96.8343 181.815L96.3773 180.925L93.7087 182.296Z" fill="white"/>
</svg>
