<svg width="146" height="115" viewBox="0 0 146 115" fill="none" xmlns="http://www.w3.org/2000/svg">
<path id="Vector 2" opacity="0.5" d="M129.454 7.99997C129.454 12.4182 133.036 16 137.454 16C141.872 16 145.454 12.4182 145.454 7.99997C145.454 3.58169 141.872 -3.05176e-05 137.454 -3.05176e-05C133.036 -3.05176e-05 129.454 3.58169 129.454 7.99997ZM45.7221 16.2022L44.3567 15.581L45.7221 16.2022ZM2.81922 114.121L3.22911 113.22L0.498451 111.978L0.0885599 112.879L2.81922 114.121ZM4.04889 111.418L4.86867 109.617L2.13801 108.374L1.31823 110.176L4.04889 111.418ZM5.68845 107.815L6.50823 106.013L3.77758 104.771L2.95779 106.572L5.68845 107.815ZM7.32801 104.211L8.14779 102.409L5.41714 101.167L4.59736 102.969L7.32801 104.211ZM8.96758 100.608L9.78736 98.8058L7.0567 97.5634L6.23692 99.3652L8.96758 100.608ZM10.6071 97.004L11.4269 95.2021L8.69626 93.9598L7.87648 95.7616L10.6071 97.004ZM12.2467 93.4003L13.0665 91.5985L10.3358 90.3561L9.51604 92.158L12.2467 93.4003ZM13.8863 89.7967L14.706 87.9949L11.9754 86.7525L11.1556 88.5543L13.8863 89.7967ZM15.5258 86.1931L16.3456 84.3913L13.6149 83.1489L12.7952 84.9507L15.5258 86.1931ZM17.1654 82.5895L17.9852 80.7877L15.2545 79.5453L14.4347 81.3471L17.1654 82.5895ZM18.805 78.9858L19.6247 77.184L16.8941 75.9416L16.0743 77.7435L18.805 78.9858ZM20.4445 75.3822L21.2643 73.5804L18.5336 72.338L17.7139 74.1398L20.4445 75.3822ZM22.0841 71.7786L22.9039 69.9768L20.1732 68.7344L19.3534 70.5362L22.0841 71.7786ZM23.7236 68.175L24.5434 66.3732L21.8128 65.1308L20.993 66.9326L23.7236 68.175ZM25.3632 64.5713L26.183 62.7695L23.4523 61.5271L22.6326 63.329L25.3632 64.5713ZM27.0028 60.9677L27.8226 59.1659L25.0919 57.9235L24.2721 59.7253L27.0028 60.9677ZM28.6423 57.3641L29.4621 55.5623L26.7315 54.3199L25.9117 56.1217L28.6423 57.3641ZM30.2819 53.7605L31.1017 51.9587L28.371 50.7163L27.5512 52.5181L30.2819 53.7605ZM31.9215 50.1568L32.7412 48.355L30.0106 47.1127L29.1908 48.9145L31.9215 50.1568ZM33.561 46.5532L34.3808 44.7514L31.6502 43.509L30.8304 45.3108L33.561 46.5532ZM35.2006 42.9496L36.0204 41.1478L33.2897 39.9054L32.4699 41.7072L35.2006 42.9496ZM36.8402 39.346L37.6599 37.5442L34.9293 36.3018L34.1095 38.1036L36.8402 39.346ZM38.4797 35.7423L39.2995 33.9405L36.5688 32.6981L35.7491 34.5L38.4797 35.7423ZM40.1193 32.1387L40.9391 30.3369L38.2084 29.0945L37.3886 30.8963L40.1193 32.1387ZM41.7588 28.5351L42.5786 26.7333L39.848 25.4909L39.0282 27.2927L41.7588 28.5351ZM43.3984 24.9315L44.2182 23.1297L41.4875 21.8873L40.6678 23.6891L43.3984 24.9315ZM45.038 21.3278L45.8578 19.526L43.1271 18.2837L42.3073 20.0855L45.038 21.3278ZM46.6775 17.7242L47.0874 16.8234L44.3567 15.581L43.9469 16.4818L46.6775 17.7242ZM47.0874 16.8234C47.2115 16.5506 47.3446 16.2839 47.4863 16.0235L44.851 14.5898C44.6754 14.9127 44.5104 15.2432 44.3567 15.581L47.0874 16.8234ZM48.4494 14.52C48.8076 14.0403 49.1982 13.5894 49.6172 13.1696L47.4942 11.05C46.9745 11.5705 46.49 12.1299 46.0456 12.7251L48.4494 14.52ZM50.966 11.9992C51.443 11.6417 51.9449 11.3186 52.4679 11.0326L51.0282 8.40057C50.38 8.75515 49.7578 9.15563 49.1666 9.59883L50.966 11.9992ZM54.0918 10.2896C54.6473 10.0819 55.2196 9.91322 55.8046 9.78583L55.1663 6.85452C54.4405 7.01256 53.7307 7.22188 53.0416 7.47936L54.0918 10.2896ZM57.5719 9.53177C57.8675 9.51067 58.1654 9.49997 58.4651 9.49997V6.49997C58.094 6.49997 57.7249 6.51322 57.3583 6.53938L57.5719 9.53177ZM58.4651 9.49997L59.4525 9.49997V6.49997L58.4651 6.49997V9.49997ZM61.4272 9.49997L63.4019 9.49997V6.49997L61.4272 6.49997V9.49997ZM65.3767 9.49997L67.3514 9.49997V6.49997L65.3767 6.49997V9.49997ZM69.3261 9.49997L71.3008 9.49997V6.49997L69.3261 6.49997V9.49997ZM73.2755 9.49997L75.2503 9.49997V6.49997L73.2755 6.49997V9.49997ZM77.225 9.49997L79.1997 9.49997V6.49997L77.225 6.49997V9.49997ZM81.1744 9.49997L83.1491 9.49997V6.49997L81.1744 6.49997V9.49997ZM85.1238 9.49997L87.0986 9.49997V6.49997L85.1238 6.49997V9.49997ZM89.0733 9.49997L91.048 9.49997V6.49997L89.0733 6.49997V9.49997ZM93.0227 9.49997L94.9974 9.49997V6.49997L93.0227 6.49997V9.49997ZM96.9722 9.49997L98.9469 9.49997V6.49997L96.9722 6.49997V9.49997ZM100.922 9.49997L102.896 9.49997V6.49997L100.922 6.49997V9.49997ZM104.871 9.49997L106.846 9.49997V6.49997L104.871 6.49997V9.49997ZM108.82 9.49997L110.795 9.49997V6.49997L108.82 6.49997V9.49997ZM112.77 9.49997L114.745 9.49997V6.49997L112.77 6.49997V9.49997ZM116.719 9.49997L118.694 9.49997V6.49997L116.719 6.49997V9.49997ZM120.669 9.49997L122.644 9.49997V6.49997L120.669 6.49997V9.49997ZM124.618 9.49997L126.593 9.49997V6.49997L124.618 6.49997V9.49997ZM128.568 9.49997L130.542 9.49997V6.49997L128.568 6.49997V9.49997ZM132.517 9.49997L134.492 9.49997V6.49997L132.517 6.49997V9.49997ZM136.467 9.49997L137.454 9.49997V6.49997L136.467 6.49997V9.49997Z" fill="white"/>
</svg>
